<svg xmlns="http://www.w3.org/2000/svg" version="1.1" xmlns:xlink="http://www.w3.org/1999/xlink" xmlns:svgjs="http://svgjs.dev/svgjs" width="128" height="128" viewBox="0 0 128 128"><g transform="matrix(0.44782608695652176,0,0,0.44782608695652176,35.339229028173904,12.5)"><svg viewBox="0 0 125 225" data-background-color="#2f3e46" preserveAspectRatio="xMidYMid meet" height="230" width="128" xmlns="http://www.w3.org/2000/svg" xmlns:xlink="http://www.w3.org/1999/xlink"><g id="tight-bounds" transform="matrix(1,0,0,1,-0.00021499999996876795,0)"><svg viewBox="0 0 125 225" height="225" width="125"><g><svg></svg></g><g><svg viewBox="0 0 125 225" height="225" width="125"><g><path transform="translate(-7.59669,43.42731) scale(1.38122,1.38122)" d="M67.6 10.7c0.2 0 1.8 0.8 2.7 1.1-0.3 0.1-1-0.2-1.8-0.5 0.2 0 0.6 0.1 1 0.3-0.2-0.2-1.7-0.7-1.9-0.9M52.7 7.6c0.3-0.1 3.8 0.4 5.4 0.5 0.1-0.1-0.2-0.1-0.6-0.2 0.5-0.1 1.5 0.2 2.2 0.3-2.1 0.1-4.4-0.5-6.4-0.3-0.7 0-0.2-0.2-0.6-0.3M49.8 7.6c1.8 0 3.2 0 0.6 0.2-0.3-0.1-0.7-0.1-0.6-0.2M78.1 15.9c0.2 0 1 0.9 1.4 1.2-0.1 0.1-0.9-0.7-1.3-1 0.1 0.1 0 0-0.1-0.2M76.1 14.6c-0.8-0.7-1.1-0.7-1.2-1.1 0.7 0.4 1.2 0.8 1.2 1.1M63.2 8.3c0.1-0.1 0.3 0.1 0.8 0.2-0.6-0.1-0.5 0-0.3 0.2-0.7-0.1-0.9-0.2-0.7-0.4 0.4 0.2 0.5 0.1 0.2 0M34.8 9.5c0-0.1 0.4-0.3 0.7-0.4-0.3 0.2-0.2 0.3 0.3 0.1 0 0.1-0.6 0.3-1 0.5 0.2-0.1 0.4-0.4 0-0.2M65.2 7.3c-0.3 0.1-1.4-0.5-2.5-0.7-0.6-0.2 2.4 0.5 2.5 0.7M6.2 56.7c0.6 2.5 0.2 2.4 0 0M6.3 41.7c0.1-0.4 0.2-1.5 0.3-1.4-0.3 2.4-0.8 3.5-0.9 5.3 0.3-1.6-0.1 0.9-0.2 1.5 0.1 0.8 0.1-0.5 0.3-0.3 0.2 0.3-0.4 4.5-0.2 2.2-0.2 2.1 0 4.4 0.4 5-0.5 3.2 2 10.4 2.5 11.9 0.1 0.1 0-0.5 0.2-0.1 0.2 1.3 1.1 2.2 1.4 3.6 0.3 0.4 1.5 2.6 1.7 3.1 0.4 0.8 0.6 0.7 1 1.5 1.2 2.3 3.1 4.5 4.9 6.6 5.8 6.8 14.7 12.4 24.6 14.4 9.9 2.1 20.3 0.6 28.4-3.3 0.5-0.3 0.4-0.4 1-0.6 2.8-0.9 6.2-3.8 8.1-4.9 0.9-1 3.3-2.7 3.6-3.7 1.7-1.4 3.4-3.7 4.3-5.2 0.5-0.8 0.9-0.8 1.1-1.3-0.1 0 1.6-2.1 2.1-3.3-0.2 0-0.5 0.6-0.5 0 3.6-6.9 5.6-16.2 4.5-22.6 0.2 7.9-1.8 16.7-5.6 22.3-1.7 3.6-5.2 7.5-8.4 10.3-0.5 0.5-1 1.1-1.6 1.5-1.9 1.6-4 2.9-6.2 4.1-5.2 2.9-11 5.4-17.8 5.5 11.7-1 22.2-6.9 28-14.1-4.4 4.3-6.3 6-11.2 8.5-0.4 0.7-3.7 2.1-5.9 2.7 1.3-0.6 4-1.6 4.9-2.4-7.3 3.5-15.4 5.5-23 4.4 2.9 0 7 0.1 10.9-0.6 0.6-0.2 0.9-0.4 1.6-0.5 7.6-1.7 14.9-5.4 20.1-10.6-3 2.7-7.5 5.9-10.4 6.9 2.7-1.5 7.6-4.4 9.2-6.6-3.2 3.2-9.2 6.4-13 7.8-0.6 0.1 0.4-0.4-0.6 0-1.2 0.3-0.7 0.3-1 0.5-4.6 1.3-9.9 2.4-14.3 2-0.8-0.1-1.1-0.3-1.8-0.3-0.8-0.1-1.5-0.1-2.4-0.1-3.5-0.4-7.3-1.8-10.1-3-1.5-0.7-3-1.2-4.5-2.1-1.2-0.7-2.2-1.5-3.2-2.3-3.8-2.8-7-5.6-10-9.6-5.4-7.5-8.2-16.9-7.8-26.2 0.4-9.3 4.1-18.4 10-25.1-0.3 0.3 0.4-0.7 1-1.3 0 0.2-0.1 0.5 0.6-0.2 0.6-0.7-0.2-0.2 0.1-0.6 6.2-6.8 17-12.3 28.1-12.5 0.4-0.3 1.1-0.7 1.9-0.5 0 0.1-0.5 0.1-0.5 0.1 1.1-0.1 2.1-0.1 2.6 0.1 0.1-0.1-0.4-0.2 0-0.2 0.7 0.2 0.9 0 1.3 0.2-0.3 0-0.6 0-0.8 0.1 2.5 0 4.1 0.6 6.6 0.8-1.3-0.3-1.6-0.3-2.6-0.6 1.1 0.2 1.6 0.4 2.1 0.3-0.2 0-0.1-0.3 0.1-0.2 2 0.5 2.2 0.7 4.3 1.4 0.2-0.2-0.9-0.3-1.2-0.6 2 0.7 3.8 1.2 5 2-0.4-0.3-1.6-0.7-2.5-1.1-0.1 0.1 0.3 0.2 0.4 0.4-1-0.5-2.4-1-3.8-1.2 1.2 0.3 2 0.7 2.5 0.9-1.1-0.2-2.5-0.9-4.1-1.2 2.6 0.8 7.5 2.6 10.5 4.2-1.1-0.7-2.4-1.2-3.1-1.6 0.6 0.1 1.3 0.5 1.3 0.3 0.7 0.3 1.6 1 2.1 1.1-0.9-0.6-2.7-1.5-3.3-1.8 7.5 3.4 14.2 9.1 18.5 16.4 0.4 0.7 1 2.3 1.5 2.5-0.1-0.5-0.5-0.8-0.9-1.6 0.2 0 0.2-0.3 0-0.6-0.4-0.5 0 0.4-0.4-0.1-1.8-3.3-4-6.2-7.4-9.4 1.9 1.8 0.5 0.5 0.1-0.1 2.6 2.3 5.6 6.2 6.9 8.2-0.2-0.3-0.3-0.5-0.2-0.5 2.4 4.1 3.9 7.8 5.4 13.1 0.1 0.1 0-0.4 0.2-0.1 1 4.2 1.3 7.7 1.2 10.9 0.8-5.4-1-13.8-4.2-20.4-0.4-0.8-0.4-0.2-0.8-1.1 0-0.3-0.3-0.9-0.5-1.3-4-6.6-8.9-11.3-14.7-15 0.4 0.2 1.2 0.8 1.2 0.7-10.8-7.1-23.3-8.1-33.6-5.9-0.7 0.3-1 0.6-1.8 1 1.5-0.5 2.4-0.6 3.8-0.9 0.3-0.3-1.3 0.1-0.6-0.2 0.1 0.1 1.4-0.2 1.7-0.1 0 0.1-0.4 0.2-0.5 0.3 3.3-0.7 6.7-0.8 9.6-0.6-1.7 0.1-4.8-0.2-5.8 0.3 1-0.1 2.4-0.2 3.3-0.1-1.2 0-3.4 0.1-4.4 0.2-0.1-0.1 1.6-0.3 0.5-0.3-0.5 0.1-1.3 0.1-1.6 0.4-8.6 0.8-17 5.3-22.9 10.6-1.2 1-2.6 2.1-3.5 3.2-2.2 2.5-3.6 5-5.2 7.2 1-2.1 3.2-5.3 5.8-8 2.6-2.7 5.4-5 6.9-6.2 0 0.4 2.4-1.5 3.3-2.1-0.6 0.5 0.4-0.2 0.6-0.1 3.2-1.9 5.8-2.6 8.7-3.7-0.7 0.2-1.3 0.4-1.4 0.3 0.7-0.2 1.1-0.4 1-0.5-2.8 0.8-7.2 2.7-10.7 4.8 6.3-4.3 14.3-6.9 22.2-7 7.9-0.2 15.6 1.8 21.7 5 4.1 1.8 8 5.1 11.1 8.3 0.9 0.8 0.2-0.2 1.5 1.2-0.4-0.2-0.7-0.4-0.2 0.2 0.8 0.9-0.2-0.7 1.1 0.9-0.1 0-0.5-0.5-0.5-0.3 3.5 3.1 6.2 8.7 7.8 12.4-0.4-1.5-1.4-3.6-2.2-5.1 2.4 4.4 3.2 7 4.2 10.9 0.4 0.3-0.2-1.4 0.2-0.6 0.1 0.6 0.2 2.5 0.6 2.8-0.3-1.9-0.8-4.2-1.2-4.6 0.3 0.2-0.5-2.3-1-2.9-0.2-1.6-1.6-4.4-2.8-6.5-4.3-8.4-12-15.3-20.6-19.1 0-0.2-0.5-0.4-0.7-0.6-8.5-3.6-18.7-4.6-28.5-2.3-9.9 2.4-19.2 8.1-25.8 16.3 0.3-1 2.8-2.9 2.9-3.7-2.9 3.1-6 7.2-8.1 11.6-2.2 4.4-3.4 8.9-3.9 12.2" fill="#e2ff8c" fill-rule="nonzero" stroke="none" stroke-width="1" stroke-linecap="butt" stroke-linejoin="miter" stroke-miterlimit="10" stroke-dasharray="" stroke-dashoffset="0" font-family="none" font-weight="none" font-size="none" text-anchor="none" style="mix-blend-mode: normal" data-fill-palette-color="tertiary"></path></g><g transform="matrix(1,0,0,1,45.790825,98.30515658548238)"><svg viewBox="0 0 33.418350000000004 28.389686829035234" height="28.389686829035234" width="33.418350000000004"><g><svg viewBox="0 0 33.418350000000004 28.389686829035234" height="28.389686829035234" width="33.418350000000004"><g><svg viewBox="0 0 33.418350000000004 28.389686829035234" height="28.389686829035234" width="33.418350000000004"><g id="textblocktransform"><svg viewBox="0 0 33.418350000000004 28.389686829035234" height="28.389686829035234" width="33.418350000000004" id="textblock"><g><svg viewBox="0 0 33.418350000000004 28.389686829035234" height="28.389686829035234" width="33.418350000000004"><g><svg viewBox="0 0 33.418350000000004 28.389686829035234" height="28.389686829035234" width="33.418350000000004"><g><svg xmlns="http://www.w3.org/2000/svg" xmlns:xlink="http://www.w3.org/1999/xlink" version="1.1" x="0" y="0" viewBox="5.039 4.895000000000002 90.001 76.458" enable-background="new 0 0 100 100" xml:space="preserve" height="28.389686829035234" width="33.418350000000004" class="icon-icon-0" data-fill-palette-color="accent" id="icon-0"><g fill="#84a98c" data-fill-palette-color="accent"><g fill="#84a98c" data-fill-palette-color="accent"><path d="M95.039 46.868h-7.123c-0.73-17.417-13.695-31.826-30.402-34.878 0.008-0.129 0.021-0.257 0.021-0.388 0-3.698-3.011-6.707-6.707-6.707-3.698 0-6.708 3.009-6.708 6.707 0 0.143 0.013 0.282 0.022 0.422C27.53 15.152 14.663 29.519 13.932 46.869h-8.53v4.045H25.23l-7.674 5.593-0.988-1.142-5.387 4.66 0.116 0.136L5.039 65.58l13.659 15.773 9.786-8.474-0.115-0.134 1.858-1.607L28.633 69.3l5.672-4.913 21.564-4.688 25.938-4.271-0.481-4.515H95.04L95.039 46.868 95.039 46.868zM94.02 49.896H81.215h-0.514-0.09-0.422H60.051h-1.049H28.848h-0.491-0.864-0.865H6.419v-2.009h7.471 15.494 0.865 0.864 27.254 0.545 0.541 28.504 6.062V49.896L94.02 49.896zM33.834 63.445l-5.867 5.082-8.51-9.826 8.643-6.196 31.429-0.474 0.283 1.143-14.233 2.473 0.174 1.002 15.31-2.656-0.487-1.977 19.811-0.3 0.308 2.862L55.68 58.697l-21.718 4.722L33.834 63.445zM18.801 79.917L6.475 65.684l5.488-4.754 0.386-0.332 0.385-0.334 0.895-0.774 0.884-0.765 0.208-0.182 0.015 0.018 0.334 0.388 0.334 0.386 5.864 6.771 4.07 4.701 0.333 0.385 0.334 0.385 0.926 1.07 0.115 0.131-2.372 2.055-0.385 0.334L18.801 79.917zM26.775 70.907l-0.334-0.386-0.333-0.385-4.071-4.699L16.23 58.73l-0.335-0.387-0.334-0.387-0.187-0.215 1.089-0.942 0.266 0.308 0.334 0.387 0.335 0.387 5.728 6.613 4.07 4.701 0.333 0.386 0.333 0.385 0.926 1.069L27.7 71.977 26.775 70.907zM45.138 11.602c0-3.137 2.552-5.688 5.688-5.688 3.136 0 5.689 2.551 5.689 5.688 0 0.07-0.009 0.138-0.013 0.208-0.448-0.07-0.903-0.122-1.356-0.175 0-0.011 0.002-0.021 0.002-0.033 0-2.384-1.938-4.324-4.322-4.324-2.384 0-4.324 1.94-4.324 4.324 0 0.02 0.005 0.038 0.006 0.058-0.455 0.055-0.909 0.113-1.358 0.185C45.147 11.763 45.138 11.683 45.138 11.602zM54.123 11.531c-1.057-0.092-2.122-0.148-3.2-0.148-1.145 0-2.276 0.06-3.396 0.164 0.03-1.797 1.496-3.25 3.3-3.25C52.623 8.296 54.084 9.741 54.123 11.531zM44.778 12.944c0.167-0.029 0.334-0.062 0.503-0.089 0.453-0.073 0.911-0.133 1.37-0.188 0.17-0.021 0.339-0.046 0.51-0.064s0.344-0.032 0.517-0.047c1.07-0.098 2.151-0.154 3.245-0.154 1.029 0 2.046 0.053 3.056 0.14 0.17 0.015 0.347 0.022 0.519 0.04 0.172 0.017 0.34 0.043 0.512 0.063 0.459 0.053 0.918 0.108 1.373 0.178 0.168 0.026 0.334 0.061 0.502 0.089 0.168 0.029 0.334 0.058 0.502 0.089 16.21 2.986 28.786 16.966 29.515 33.867H66.67c-2.74-0.13-5.336-0.311-7.789-0.537-0.186-0.018-0.377-0.033-0.561-0.05-1.109-0.107-2.189-0.223-3.242-0.347-1.211-0.143-2.391-0.295-3.528-0.459-24.016-3.458-31.729-11.34-32.971-12.802 4.943-10.047 14.431-17.502 25.698-19.641C44.443 13.002 44.611 12.973 44.778 12.944z" fill="#84a98c" data-fill-palette-color="accent"></path></g></g></svg></g></svg></g></svg></g></svg></g></svg></g><g></g></svg></g></svg></g></svg></g><defs></defs></svg><rect width="125" height="225" fill="none" stroke="none" visibility="hidden"></rect></g></svg></g></svg>