<svg xmlns="http://www.w3.org/2000/svg" version="1.1" xmlns:xlink="http://www.w3.org/1999/xlink" xmlns:svgjs="http://svgjs.dev/svgjs" width="2000" height="2250" viewBox="0 0 2000 2250"><g transform="matrix(1,0,0,1,0.000015624999718966137,0)"><svg viewBox="0 0 320 360" data-background-color="#2f3e46" preserveAspectRatio="xMidYMid meet" height="2250" width="2000" xmlns="http://www.w3.org/2000/svg" xmlns:xlink="http://www.w3.org/1999/xlink"><g id="tight-bounds" transform="matrix(1,0,0,1,0.0000025000000505315256,0)"><svg viewBox="0 0 320 360" height="360" width="320"><g><svg></svg></g><g><svg viewBox="0 0 320 360" height="360" width="320"><g><path transform="translate(-19.44751,3.1739) scale(3.53591,3.53591)" d="M67.6 10.7c0.2 0 1.8 0.8 2.7 1.1-0.3 0.1-1-0.2-1.8-0.5 0.2 0 0.6 0.1 1 0.3-0.2-0.2-1.7-0.7-1.9-0.9M52.7 7.6c0.3-0.1 3.8 0.4 5.4 0.5 0.1-0.1-0.2-0.1-0.6-0.2 0.5-0.1 1.5 0.2 2.2 0.3-2.1 0.1-4.4-0.5-6.4-0.3-0.7 0-0.2-0.2-0.6-0.3M49.8 7.6c1.8 0 3.2 0 0.6 0.2-0.3-0.1-0.7-0.1-0.6-0.2M78.1 15.9c0.2 0 1 0.9 1.4 1.2-0.1 0.1-0.9-0.7-1.3-1 0.1 0.1 0 0-0.1-0.2M76.1 14.6c-0.8-0.7-1.1-0.7-1.2-1.1 0.7 0.4 1.2 0.8 1.2 1.1M63.2 8.3c0.1-0.1 0.3 0.1 0.8 0.2-0.6-0.1-0.5 0-0.3 0.2-0.7-0.1-0.9-0.2-0.7-0.4 0.4 0.2 0.5 0.1 0.2 0M34.8 9.5c0-0.1 0.4-0.3 0.7-0.4-0.3 0.2-0.2 0.3 0.3 0.1 0 0.1-0.6 0.3-1 0.5 0.2-0.1 0.4-0.4 0-0.2M65.2 7.3c-0.3 0.1-1.4-0.5-2.5-0.7-0.6-0.2 2.4 0.5 2.5 0.7M6.2 56.7c0.6 2.5 0.2 2.4 0 0M6.3 41.7c0.1-0.4 0.2-1.5 0.3-1.4-0.3 2.4-0.8 3.5-0.9 5.3 0.3-1.6-0.1 0.9-0.2 1.5 0.1 0.8 0.1-0.5 0.3-0.3 0.2 0.3-0.4 4.5-0.2 2.2-0.2 2.1 0 4.4 0.4 5-0.5 3.2 2 10.4 2.5 11.9 0.1 0.1 0-0.5 0.2-0.1 0.2 1.3 1.1 2.2 1.4 3.6 0.3 0.4 1.5 2.6 1.7 3.1 0.4 0.8 0.6 0.7 1 1.5 1.2 2.3 3.1 4.5 4.9 6.6 5.8 6.8 14.7 12.4 24.6 14.4 9.9 2.1 20.3 0.6 28.4-3.3 0.5-0.3 0.4-0.4 1-0.6 2.8-0.9 6.2-3.8 8.1-4.9 0.9-1 3.3-2.7 3.6-3.7 1.7-1.4 3.4-3.7 4.3-5.2 0.5-0.8 0.9-0.8 1.1-1.3-0.1 0 1.6-2.1 2.1-3.3-0.2 0-0.5 0.6-0.5 0 3.6-6.9 5.6-16.2 4.5-22.6 0.2 7.9-1.8 16.7-5.6 22.3-1.7 3.6-5.2 7.5-8.4 10.3-0.5 0.5-1 1.1-1.6 1.5-1.9 1.6-4 2.9-6.2 4.1-5.2 2.9-11 5.4-17.8 5.5 11.7-1 22.2-6.9 28-14.1-4.4 4.3-6.3 6-11.2 8.5-0.4 0.7-3.7 2.1-5.9 2.7 1.3-0.6 4-1.6 4.9-2.4-7.3 3.5-15.4 5.5-23 4.4 2.9 0 7 0.1 10.9-0.6 0.6-0.2 0.9-0.4 1.6-0.5 7.6-1.7 14.9-5.4 20.1-10.6-3 2.7-7.5 5.9-10.4 6.9 2.7-1.5 7.6-4.4 9.2-6.6-3.2 3.2-9.2 6.4-13 7.8-0.6 0.1 0.4-0.4-0.6 0-1.2 0.3-0.7 0.3-1 0.5-4.6 1.3-9.9 2.4-14.3 2-0.8-0.1-1.1-0.3-1.8-0.3-0.8-0.1-1.5-0.1-2.4-0.1-3.5-0.4-7.3-1.8-10.1-3-1.5-0.7-3-1.2-4.5-2.1-1.2-0.7-2.2-1.5-3.2-2.3-3.8-2.8-7-5.6-10-9.6-5.4-7.5-8.2-16.9-7.8-26.2 0.4-9.3 4.1-18.4 10-25.1-0.3 0.3 0.4-0.7 1-1.3 0 0.2-0.1 0.5 0.6-0.2 0.6-0.7-0.2-0.2 0.1-0.6 6.2-6.8 17-12.3 28.1-12.5 0.4-0.3 1.1-0.7 1.9-0.5 0 0.1-0.5 0.1-0.5 0.1 1.1-0.1 2.1-0.1 2.6 0.1 0.1-0.1-0.4-0.2 0-0.2 0.7 0.2 0.9 0 1.3 0.2-0.3 0-0.6 0-0.8 0.1 2.5 0 4.1 0.6 6.6 0.8-1.3-0.3-1.6-0.3-2.6-0.6 1.1 0.2 1.6 0.4 2.1 0.3-0.2 0-0.1-0.3 0.1-0.2 2 0.5 2.2 0.7 4.3 1.4 0.2-0.2-0.9-0.3-1.2-0.6 2 0.7 3.8 1.2 5 2-0.4-0.3-1.6-0.7-2.5-1.1-0.1 0.1 0.3 0.2 0.4 0.4-1-0.5-2.4-1-3.8-1.2 1.2 0.3 2 0.7 2.5 0.9-1.1-0.2-2.5-0.9-4.1-1.2 2.6 0.8 7.5 2.6 10.5 4.2-1.1-0.7-2.4-1.2-3.1-1.6 0.6 0.1 1.3 0.5 1.3 0.3 0.7 0.3 1.6 1 2.1 1.1-0.9-0.6-2.7-1.5-3.3-1.8 7.5 3.4 14.2 9.1 18.5 16.4 0.4 0.7 1 2.3 1.5 2.5-0.1-0.5-0.5-0.8-0.9-1.6 0.2 0 0.2-0.3 0-0.6-0.4-0.5 0 0.4-0.4-0.1-1.8-3.3-4-6.2-7.4-9.4 1.9 1.8 0.5 0.5 0.1-0.1 2.6 2.3 5.6 6.2 6.9 8.2-0.2-0.3-0.3-0.5-0.2-0.5 2.4 4.1 3.9 7.8 5.4 13.1 0.1 0.1 0-0.4 0.2-0.1 1 4.2 1.3 7.7 1.2 10.9 0.8-5.4-1-13.8-4.2-20.4-0.4-0.8-0.4-0.2-0.8-1.1 0-0.3-0.3-0.9-0.5-1.3-4-6.6-8.9-11.3-14.7-15 0.4 0.2 1.2 0.8 1.2 0.7-10.8-7.1-23.3-8.1-33.6-5.9-0.7 0.3-1 0.6-1.8 1 1.5-0.5 2.4-0.6 3.8-0.9 0.3-0.3-1.3 0.1-0.6-0.2 0.1 0.1 1.4-0.2 1.7-0.1 0 0.1-0.4 0.2-0.5 0.3 3.3-0.7 6.7-0.8 9.6-0.6-1.7 0.1-4.8-0.2-5.8 0.3 1-0.1 2.4-0.2 3.3-0.1-1.2 0-3.4 0.1-4.4 0.2-0.1-0.1 1.6-0.3 0.5-0.3-0.5 0.1-1.3 0.1-1.6 0.4-8.6 0.8-17 5.3-22.9 10.6-1.2 1-2.6 2.1-3.5 3.2-2.2 2.5-3.6 5-5.2 7.2 1-2.1 3.2-5.3 5.8-8 2.6-2.7 5.4-5 6.9-6.2 0 0.4 2.4-1.5 3.3-2.1-0.6 0.5 0.4-0.2 0.6-0.1 3.2-1.9 5.8-2.6 8.7-3.7-0.7 0.2-1.3 0.4-1.4 0.3 0.7-0.2 1.1-0.4 1-0.5-2.8 0.8-7.2 2.7-10.7 4.8 6.3-4.3 14.3-6.9 22.2-7 7.9-0.2 15.6 1.8 21.7 5 4.1 1.8 8 5.1 11.1 8.3 0.9 0.8 0.2-0.2 1.5 1.2-0.4-0.2-0.7-0.4-0.2 0.2 0.8 0.9-0.2-0.7 1.1 0.9-0.1 0-0.5-0.5-0.5-0.3 3.5 3.1 6.2 8.7 7.8 12.4-0.4-1.5-1.4-3.6-2.2-5.1 2.4 4.4 3.2 7 4.2 10.9 0.4 0.3-0.2-1.4 0.2-0.6 0.1 0.6 0.2 2.5 0.6 2.8-0.3-1.9-0.8-4.2-1.2-4.6 0.3 0.2-0.5-2.3-1-2.9-0.2-1.6-1.6-4.4-2.8-6.5-4.3-8.4-12-15.3-20.6-19.1 0-0.2-0.5-0.4-0.7-0.6-8.5-3.6-18.7-4.6-28.5-2.3-9.9 2.4-19.2 8.1-25.8 16.3 0.3-1 2.8-2.9 2.9-3.7-2.9 3.1-6 7.2-8.1 11.6-2.2 4.4-3.4 8.9-3.9 12.2" fill="#e2ff8c" fill-rule="nonzero" stroke="none" stroke-width="1" stroke-linecap="butt" stroke-linejoin="miter" stroke-miterlimit="10" stroke-dasharray="" stroke-dashoffset="0" font-family="none" font-weight="none" font-size="none" text-anchor="none" style="mix-blend-mode: normal" data-fill-palette-color="tertiary"></path></g><g transform="matrix(1,0,0,1,48.000000000000014,112.79030676950933)"><svg viewBox="0 0 223.99999999999997 134.41938646098134" height="134.41938646098134" width="223.99999999999997"><g><svg viewBox="0 0 225.11999999999998 135.09148339328624" height="134.41938646098134" width="223.99999999999997"><g><rect width="225.11999999999998" height="3.815325536940828" x="0" y="78.98098864160777" fill="#e3e3e1" opacity="1" stroke-width="0" stroke="transparent" fill-opacity="1" class="rect-qz-0" data-fill-palette-color="primary" rx="1%" id="qz-0" data-palette-color="#e3e3e1"></rect></g><g transform="matrix(1,0,0,1,0.5599999999999881,92.78407736425757)"><svg viewBox="0 0 224 42.30740602902867" height="42.30740602902867" width="224"><g id="textblocktransform"><svg viewBox="0 0 224 42.30740602902867" height="42.30740602902867" width="224" id="textblock"><g><svg viewBox="0 0 224 42.30740602902867" height="42.30740602902867" width="224"><g transform="matrix(1,0,0,1,0,0)"><svg width="224" viewBox="5 -39.05 268.68 50.75" height="42.30740602902867" data-palette-color="#e3e3e1"><path d="M6.95 0L6.95 0Q6.1 0 5.55-0.55 5-1.1 5-1.95L5-1.95 5-37.1Q5-37.95 5.55-38.5 6.1-39.05 6.95-39.05L6.95-39.05 16.3-39.05Q19.95-39.05 22.8-37.52 25.65-36 27.28-33.27 28.9-30.55 28.9-27L28.9-27Q28.9-23.6 27.28-20.95 25.65-18.3 22.8-16.8 19.95-15.3 16.3-15.3L16.3-15.3 8.9-15.3 8.9-1.95Q8.9-1.1 8.35-0.55 7.8 0 6.95 0ZM27.85 0L27.85 0Q27.2 0 26.83-0.25 26.45-0.5 26.15-1L26.15-1 16.55-16.3 20.45-17.3 29.4-3Q30.15-1.8 29.68-0.9 29.2 0 27.85 0ZM8.9-35.3L8.9-19.05 16.3-19.05Q18.85-19.05 20.83-20.08 22.8-21.1 23.95-22.9 25.1-24.7 25.1-27L25.1-27Q25.1-29.45 23.95-31.33 22.8-33.2 20.83-34.25 18.85-35.3 16.3-35.3L16.3-35.3 8.9-35.3ZM47.8 0.25L47.8 0.25Q43.75 0.25 40.62-1.53 37.5-3.3 35.72-6.45 33.95-9.6 33.95-13.65L33.95-13.65Q33.95-17.75 35.62-20.88 37.3-24 40.25-25.8 43.2-27.6 47.05-27.6L47.05-27.6Q50.85-27.6 53.67-25.88 56.5-24.15 58.05-21.1 59.6-18.05 59.6-14.15L59.6-14.15Q59.6-13.35 59.1-12.88 58.6-12.4 57.8-12.4L57.8-12.4 36.55-12.4 36.55-15.6 58.2-15.6 56.05-14.05Q56.1-16.95 55-19.25 53.9-21.55 51.87-22.85 49.85-24.15 47.05-24.15L47.05-24.15Q44.2-24.15 42.05-22.8 39.9-21.45 38.72-19.07 37.55-16.7 37.55-13.65L37.55-13.65Q37.55-10.6 38.87-8.25 40.2-5.9 42.5-4.55 44.8-3.2 47.8-3.2L47.8-3.2Q49.6-3.2 51.42-3.83 53.25-4.45 54.35-5.4L54.35-5.4Q54.9-5.85 55.6-5.88 56.3-5.9 56.8-5.5L56.8-5.5Q57.45-4.9 57.47-4.2 57.5-3.5 56.9-3L56.9-3Q55.25-1.6 52.7-0.68 50.15 0.25 47.8 0.25ZM77.3 0.25L77.3 0.25Q73.34 0.25 70.27-1.58 67.2-3.4 65.42-6.55 63.65-9.7 63.65-13.65L63.65-13.65Q63.65-17.65 65.34-20.8 67.05-23.95 70-25.78 72.95-27.6 76.8-27.6L76.8-27.6Q79.84-27.6 82.42-26.4 85-25.2 86.95-22.8L86.95-22.8Q87.5-22.2 87.34-21.53 87.2-20.85 86.5-20.35L86.5-20.35Q85.95-19.95 85.27-20.08 84.59-20.2 84.09-20.8L84.09-20.8Q81.2-24.1 76.8-24.1L76.8-24.1Q74-24.1 71.87-22.75 69.75-21.4 68.57-19.05 67.4-16.7 67.4-13.65L67.4-13.65Q67.4-10.65 68.65-8.3 69.9-5.95 72.15-4.6 74.4-3.25 77.3-3.25L77.3-3.25Q79.25-3.25 80.87-3.78 82.5-4.3 83.75-5.4L83.75-5.4Q84.34-5.9 85-5.95 85.65-6 86.2-5.55L86.2-5.55Q86.8-5 86.87-4.3 86.95-3.6 86.4-3.1L86.4-3.1Q82.75 0.25 77.3 0.25ZM97.64 0L97.64 0Q96.74 0 96.22-0.53 95.69-1.05 95.69-1.95L95.69-1.95 95.69-25.4Q95.69-26.3 96.22-26.83 96.74-27.35 97.64-27.35L97.64-27.35Q98.49-27.35 99.02-26.83 99.54-26.3 99.54-25.4L99.54-25.4 99.54-1.95Q99.54-1.05 99.02-0.53 98.49 0 97.64 0ZM97.59-32.55L97.59-32.55Q96.49-32.55 95.69-33.35 94.89-34.15 94.89-35.3L94.89-35.3Q94.89-36.55 95.72-37.27 96.54-38 97.64-38L97.64-38Q98.69-38 99.52-37.27 100.34-36.55 100.34-35.3L100.34-35.3Q100.34-34.15 99.54-33.35 98.74-32.55 97.59-32.55ZM111.29 11.7L111.29 11.7Q110.39 11.7 109.87 11.18 109.34 10.65 109.34 9.75L109.34 9.75 109.34-13.85Q109.39-17.75 111.22-20.88 113.04-24 116.17-25.8 119.29-27.6 123.19-27.6L123.19-27.6Q127.19-27.6 130.34-25.78 133.49-23.95 135.32-20.8 137.14-17.65 137.14-13.65L137.14-13.65Q137.14-9.7 135.37-6.55 133.59-3.4 130.54-1.58 127.49 0.25 123.64 0.25L123.64 0.25Q120.29 0.25 117.57-1.18 114.84-2.6 113.19-4.95L113.19-4.95 113.19 9.75Q113.19 10.65 112.67 11.18 112.14 11.7 111.29 11.7ZM123.19-3.25L123.19-3.25Q126.09-3.25 128.39-4.6 130.69-5.95 132.02-8.33 133.34-10.7 133.34-13.65L133.34-13.65Q133.34-16.65 132.02-19 130.69-21.35 128.39-22.73 126.09-24.1 123.19-24.1L123.19-24.1Q120.34-24.1 118.04-22.73 115.74-21.35 114.44-19 113.14-16.65 113.14-13.65L113.14-13.65Q113.14-10.7 114.44-8.33 115.74-5.95 118.04-4.6 120.34-3.25 123.19-3.25ZM157.09 0.25L157.09 0.25Q153.04 0.25 149.91-1.53 146.79-3.3 145.01-6.45 143.24-9.6 143.24-13.65L143.24-13.65Q143.24-17.75 144.91-20.88 146.59-24 149.54-25.8 152.49-27.6 156.34-27.6L156.34-27.6Q160.14-27.6 162.96-25.88 165.79-24.15 167.34-21.1 168.89-18.05 168.89-14.15L168.89-14.15Q168.89-13.35 168.39-12.88 167.89-12.4 167.09-12.4L167.09-12.4 145.84-12.4 145.84-15.6 167.49-15.6 165.34-14.05Q165.39-16.95 164.29-19.25 163.19-21.55 161.16-22.85 159.14-24.15 156.34-24.15L156.34-24.15Q153.49-24.15 151.34-22.8 149.19-21.45 148.01-19.07 146.84-16.7 146.84-13.65L146.84-13.65Q146.84-10.6 148.16-8.25 149.49-5.9 151.79-4.55 154.09-3.2 157.09-3.2L157.09-3.2Q158.89-3.2 160.71-3.83 162.54-4.45 163.64-5.4L163.64-5.4Q164.19-5.85 164.89-5.88 165.59-5.9 166.09-5.5L166.09-5.5Q166.74-4.9 166.76-4.2 166.79-3.5 166.19-3L166.19-3Q164.54-1.6 161.99-0.68 159.44 0.25 157.09 0.25ZM173.74 0L173.74 0Q172.59 0 172.09-0.95 171.59-1.9 171.99-2.8L171.99-2.8 186.69-37.7Q187.24-39.05 188.59-39.05L188.59-39.05Q189.89-39.05 190.44-37.7L190.44-37.7 205.19-2.75Q205.64-1.8 205.06-0.9 204.49 0 203.44 0L203.44 0Q202.84 0 202.36-0.3 201.89-0.6 201.59-1.2L201.59-1.2 187.84-34.55 189.39-34.55 175.54-1.2Q175.29-0.6 174.81-0.3 174.34 0 173.74 0ZM200.34-9.3L177.04-9.3 178.54-12.65 198.84-12.65 200.34-9.3ZM212.48 11.7L212.48 11.7Q211.58 11.7 211.06 11.18 210.53 10.65 210.53 9.75L210.53 9.75 210.53-13.85Q210.58-17.75 212.41-20.88 214.23-24 217.36-25.8 220.48-27.6 224.38-27.6L224.38-27.6Q228.38-27.6 231.53-25.78 234.68-23.95 236.51-20.8 238.33-17.65 238.33-13.65L238.33-13.65Q238.33-9.7 236.56-6.55 234.78-3.4 231.73-1.58 228.68 0.25 224.83 0.25L224.83 0.25Q221.48 0.25 218.76-1.18 216.03-2.6 214.38-4.95L214.38-4.95 214.38 9.75Q214.38 10.65 213.86 11.18 213.33 11.7 212.48 11.7ZM224.38-3.25L224.38-3.25Q227.28-3.25 229.58-4.6 231.88-5.95 233.21-8.33 234.53-10.7 234.53-13.65L234.53-13.65Q234.53-16.65 233.21-19 231.88-21.35 229.58-22.73 227.28-24.1 224.38-24.1L224.38-24.1Q221.53-24.1 219.23-22.73 216.93-21.35 215.63-19 214.33-16.65 214.33-13.65L214.33-13.65Q214.33-10.7 215.63-8.33 216.93-5.95 219.23-4.6 221.53-3.25 224.38-3.25ZM247.83 11.7L247.83 11.7Q246.93 11.7 246.41 11.18 245.88 10.65 245.88 9.75L245.88 9.75 245.88-13.85Q245.93-17.75 247.76-20.88 249.58-24 252.71-25.8 255.83-27.6 259.73-27.6L259.73-27.6Q263.73-27.6 266.88-25.78 270.03-23.95 271.86-20.8 273.68-17.65 273.68-13.65L273.68-13.65Q273.68-9.7 271.91-6.55 270.13-3.4 267.08-1.58 264.03 0.25 260.18 0.25L260.18 0.25Q256.83 0.25 254.11-1.18 251.38-2.6 249.73-4.95L249.73-4.95 249.73 9.75Q249.73 10.65 249.21 11.18 248.68 11.7 247.83 11.7ZM259.73-3.25L259.73-3.25Q262.63-3.25 264.93-4.6 267.23-5.95 268.56-8.33 269.88-10.7 269.88-13.65L269.88-13.65Q269.88-16.65 268.56-19 267.23-21.35 264.93-22.73 262.63-24.1 259.73-24.1L259.73-24.1Q256.88-24.1 254.58-22.73 252.28-21.35 250.98-19 249.68-16.65 249.68-13.65L249.68-13.65Q249.68-10.7 250.98-8.33 252.28-5.95 254.58-4.6 256.88-3.25 259.73-3.25Z" opacity="1" transform="matrix(1,0,0,1,0,0)" fill="#e3e3e1" class="wordmark-text-0" data-fill-palette-color="primary" id="text-0"></path></svg></g></svg></g></svg></g></svg></g><g transform="matrix(1,0,0,1,71.95300475910729,0)"><svg viewBox="0 0 81.2139904817854 68.9932254558988" height="68.9932254558988" width="81.2139904817854"><g><svg xmlns="http://www.w3.org/2000/svg" xmlns:xlink="http://www.w3.org/1999/xlink" version="1.1" x="0" y="0" viewBox="5.039 4.895000000000002 90.001 76.458" enable-background="new 0 0 100 100" xml:space="preserve" height="68.9932254558988" width="81.2139904817854" class="icon-icon-0" data-fill-palette-color="accent" id="icon-0"><g fill="#84a98c" data-fill-palette-color="accent"><g fill="#84a98c" data-fill-palette-color="accent"><path d="M95.039 46.868h-7.123c-0.73-17.417-13.695-31.826-30.402-34.878 0.008-0.129 0.021-0.257 0.021-0.388 0-3.698-3.011-6.707-6.707-6.707-3.698 0-6.708 3.009-6.708 6.707 0 0.143 0.013 0.282 0.022 0.422C27.53 15.152 14.663 29.519 13.932 46.869h-8.53v4.045H25.23l-7.674 5.593-0.988-1.142-5.387 4.66 0.116 0.136L5.039 65.58l13.659 15.773 9.786-8.474-0.115-0.134 1.858-1.607L28.633 69.3l5.672-4.913 21.564-4.688 25.938-4.271-0.481-4.515H95.04L95.039 46.868 95.039 46.868zM94.02 49.896H81.215h-0.514-0.09-0.422H60.051h-1.049H28.848h-0.491-0.864-0.865H6.419v-2.009h7.471 15.494 0.865 0.864 27.254 0.545 0.541 28.504 6.062V49.896L94.02 49.896zM33.834 63.445l-5.867 5.082-8.51-9.826 8.643-6.196 31.429-0.474 0.283 1.143-14.233 2.473 0.174 1.002 15.31-2.656-0.487-1.977 19.811-0.3 0.308 2.862L55.68 58.697l-21.718 4.722L33.834 63.445zM18.801 79.917L6.475 65.684l5.488-4.754 0.386-0.332 0.385-0.334 0.895-0.774 0.884-0.765 0.208-0.182 0.015 0.018 0.334 0.388 0.334 0.386 5.864 6.771 4.07 4.701 0.333 0.385 0.334 0.385 0.926 1.07 0.115 0.131-2.372 2.055-0.385 0.334L18.801 79.917zM26.775 70.907l-0.334-0.386-0.333-0.385-4.071-4.699L16.23 58.73l-0.335-0.387-0.334-0.387-0.187-0.215 1.089-0.942 0.266 0.308 0.334 0.387 0.335 0.387 5.728 6.613 4.07 4.701 0.333 0.386 0.333 0.385 0.926 1.069L27.7 71.977 26.775 70.907zM45.138 11.602c0-3.137 2.552-5.688 5.688-5.688 3.136 0 5.689 2.551 5.689 5.688 0 0.07-0.009 0.138-0.013 0.208-0.448-0.07-0.903-0.122-1.356-0.175 0-0.011 0.002-0.021 0.002-0.033 0-2.384-1.938-4.324-4.322-4.324-2.384 0-4.324 1.94-4.324 4.324 0 0.02 0.005 0.038 0.006 0.058-0.455 0.055-0.909 0.113-1.358 0.185C45.147 11.763 45.138 11.683 45.138 11.602zM54.123 11.531c-1.057-0.092-2.122-0.148-3.2-0.148-1.145 0-2.276 0.06-3.396 0.164 0.03-1.797 1.496-3.25 3.3-3.25C52.623 8.296 54.084 9.741 54.123 11.531zM44.778 12.944c0.167-0.029 0.334-0.062 0.503-0.089 0.453-0.073 0.911-0.133 1.37-0.188 0.17-0.021 0.339-0.046 0.51-0.064s0.344-0.032 0.517-0.047c1.07-0.098 2.151-0.154 3.245-0.154 1.029 0 2.046 0.053 3.056 0.14 0.17 0.015 0.347 0.022 0.519 0.04 0.172 0.017 0.34 0.043 0.512 0.063 0.459 0.053 0.918 0.108 1.373 0.178 0.168 0.026 0.334 0.061 0.502 0.089 0.168 0.029 0.334 0.058 0.502 0.089 16.21 2.986 28.786 16.966 29.515 33.867H66.67c-2.74-0.13-5.336-0.311-7.789-0.537-0.186-0.018-0.377-0.033-0.561-0.05-1.109-0.107-2.189-0.223-3.242-0.347-1.211-0.143-2.391-0.295-3.528-0.459-24.016-3.458-31.729-11.34-32.971-12.802 4.943-10.047 14.431-17.502 25.698-19.641C44.443 13.002 44.611 12.973 44.778 12.944z" fill="#84a98c" data-fill-palette-color="accent"></path></g></g></svg></g></svg></g><g></g></svg></g></svg></g></svg></g><defs></defs></svg><rect width="320" height="360" fill="none" stroke="none" visibility="hidden"></rect></g></svg></g></svg>